<?xml version="1.0" standalone="no"?>
<!DOCTYPE svg PUBLIC "-//W3C//DTD SVG 20010904//EN"
 "http://www.w3.org/TR/2001/REC-SVG-20010904/DTD/svg10.dtd">
<svg version="1.0" xmlns="http://www.w3.org/2000/svg"
 width="700.000000pt" height="700.000000pt" viewBox="0 0 700.000000 700.000000"
 preserveAspectRatio="xMidYMid meet">
<metadata>
Created by potrace 1.14, written by Peter Selinger 2001-2017
</metadata>
<g transform="translate(0.000000,700.000000) scale(0.100000,-0.100000)"
fill="#000000" stroke="none">
<path d="M3410 6114 c-8 -4 -620 -342 -1360 -753 -873 -484 -1357 -758 -1380
-781 -112 -112 -112 -298 0 -410 21 -20 167 -108 353 -210 297 -164 317 -177
314 -200 -2 -14 -18 -74 -35 -135 -85 -305 -121 -565 -129 -915 -6 -259 3
-417 33 -630 21 -143 38 -191 89 -248 56 -62 115 -88 231 -102 49 -6 141 -20
204 -31 104 -18 153 -29 272 -60 l38 -10 0 -248 c0 -190 3 -259 15 -298 62
-209 336 -274 487 -117 64 68 79 117 86 280 3 79 7 144 9 144 10 0 117 -59
211 -116 129 -79 277 -187 397 -289 128 -109 151 -120 255 -120 105 0 125 10
270 132 479 402 1038 646 1670 728 151 20 206 42 265 107 51 57 68 105 89 248
30 212 39 371 33 630 -7 346 -44 609 -129 915 -17 61 -33 121 -35 135 -3 23
17 36 314 200 186 102 332 190 353 210 112 112 112 298 0 410 -23 23 -509 298
-1385 785 l-1350 750 -85 2 c-47 1 -92 0 -100 -3z m1103 -1177 c549 -305 997
-559 996 -563 -2 -5 -454 -260 -1006 -566 l-1003 -558 -185 103 c-101 56 -185
104 -184 107 0 3 121 72 269 154 300 166 343 199 375 295 48 146 -33 318 -173
365 -54 19 -145 21 -193 4 -19 -6 -226 -118 -460 -248 l-426 -237 -517 288
c-285 158 -516 291 -515 295 4 13 2002 1123 2014 1119 6 -2 459 -253 1008
-558z m-2473 -2123 l0 -581 -112 23 c-62 13 -123 24 -135 24 -18 0 -23 8 -30
48 -12 72 -9 535 5 642 24 181 73 443 97 507 2 8 33 -4 89 -35 l86 -47 0 -581z
m3128 526 c63 -279 88 -535 78 -820 -3 -107 -9 -204 -12 -215 -4 -17 -27 -24
-150 -48 -522 -100 -1079 -347 -1504 -667 l-80 -59 -67 50 c-207 158 -517 337
-750 437 l-53 23 0 509 c0 281 3 510 6 510 3 0 177 -96 387 -212 l382 -213 95
0 95 0 765 426 c421 234 768 423 772 420 3 -3 20 -67 36 -141z"/>
</g>
</svg>
